# xmcd CD database file
#
# Track frame offsets:
#	150
#	11672
#	22257
#	37314
#	48841
#	62525
#	75002
#	85360
#	99187
#	116865
#	130174
#	148881
#	162006
#	173506
#	186027
#	201114
#
# Disc length: 2835 seconds
#
# Revision: 0
# Processed by: cddbd v1.5.2PL0 Copyright (c) Steve Scherf et al.
# Submitted via: CDex 1.70beta2
#
DISCID=cd0b1110
DTITLE=Kenny Rogers - Ruby
DYEAR=2006
DGENRE=Country
TTITLE0=A poem for a little lady
TTITLE1=We all got to help each other
TTITLE2=Tell it all brother
TTITLE3=Always leaving, always gone
TTITLE4=I'm going to sing you a sad song Susie
TTITLE5=Elvira
TTITLE6=New design
TTITLE7=But you know I love you
TTITLE8=Something's burning
TTITLE9=Shine on Ruby mountain
TTITLE10=The king of Oak street
TTITLE11=Ruby, don't take your love to town
TTITLE12=Me and Bobby McGee
TTITLE13=Love woman
TTITLE14=Just dropped in (to see what condition my condition was in)
TTITLE15=Calico Silver
EXTD=YEAR: 2006
EXTT0=
EXTT1=
EXTT2=
EXTT3=
EXTT4=
EXTT5=
EXTT6=
EXTT7=
EXTT8=
EXTT9=
EXTT10=
EXTT11=
EXTT12=
EXTT13=
EXTT14=
EXTT15=
PLAYORDER=
